<svg width="18" height="11" viewBox="0 0 18 11" fill="none" xmlns="http://www.w3.org/2000/svg">
<path fill-rule="evenodd" clip-rule="evenodd" d="M12.2179 0.226585C12.2876 0.154761 12.3703 0.0977756 12.4614 0.0588944C12.5526 0.0200131 12.6502 0 12.7489 0C12.8475 0 12.9452 0.0200131 13.0363 0.0588944C13.1274 0.0977756 13.2102 0.154761 13.2799 0.226585L17.7798 4.85412C17.8496 4.92576 17.905 5.01087 17.9428 5.10457C17.9806 5.19827 18.0001 5.29872 18.0001 5.40017C18.0001 5.50162 17.9806 5.60206 17.9428 5.69576C17.905 5.78947 17.8496 5.87457 17.7798 5.94622L13.2799 10.5738C13.139 10.7186 12.948 10.7999 12.7489 10.7999C12.5497 10.7999 12.3587 10.7186 12.2179 10.5738C12.0771 10.4289 11.998 10.2325 11.998 10.0277C11.998 9.82289 12.0771 9.62647 12.2179 9.48165L16.1883 5.40017L12.2179 1.31868C12.1481 1.24704 12.0926 1.16193 12.0548 1.06823C12.017 0.974531 11.9976 0.874081 11.9976 0.772634C11.9976 0.671187 12.017 0.570737 12.0548 0.477037C12.0926 0.383337 12.1481 0.298228 12.2179 0.226585V0.226585Z" fill="#9C369A"/>
<path fill-rule="evenodd" clip-rule="evenodd" d="M0 5.39992C0 5.19537 0.0790159 4.9992 0.219665 4.85456C0.360314 4.70992 0.551075 4.62866 0.749983 4.62866H16.4996C16.6985 4.62866 16.8893 4.70992 17.0299 4.85456C17.1706 4.9992 17.2496 5.19537 17.2496 5.39992C17.2496 5.60447 17.1706 5.80064 17.0299 5.94528C16.8893 6.08992 16.6985 6.17117 16.4996 6.17117H0.749983C0.551075 6.17117 0.360314 6.08992 0.219665 5.94528C0.0790159 5.80064 0 5.60447 0 5.39992Z" fill="#9C369A"/>
</svg>
