<svg width="569" height="340" viewBox="0 0 569 340" fill="none" xmlns="http://www.w3.org/2000/svg">
<g clip-path="url(#clip0_724_394)">
<path d="M549.908 20.9163C552.442 20.9163 554.497 18.7875 554.497 16.1614C554.497 13.5353 552.442 11.4065 549.908 11.4065C547.374 11.4065 545.32 13.5353 545.32 16.1614C545.32 18.7875 547.374 20.9163 549.908 20.9163Z" fill="#F2F2F2"/>
<path d="M531.623 20.9163C534.157 20.9163 536.211 18.7875 536.211 16.1614C536.211 13.5353 534.157 11.4065 531.623 11.4065C529.089 11.4065 527.035 13.5353 527.035 16.1614C527.035 18.7875 529.089 20.9163 531.623 20.9163Z" fill="#F2F2F2"/>
<path d="M513.338 20.9163C515.872 20.9163 517.926 18.7875 517.926 16.1614C517.926 13.5353 515.872 11.4065 513.338 11.4065C510.804 11.4065 508.75 13.5353 508.75 16.1614C508.75 18.7875 510.804 20.9163 513.338 20.9163Z" fill="#F2F2F2"/>
<path d="M495.052 20.9163C497.586 20.9163 499.64 18.7875 499.64 16.1614C499.64 13.5353 497.586 11.4065 495.052 11.4065C492.518 11.4065 490.464 13.5353 490.464 16.1614C490.464 18.7875 492.518 20.9163 495.052 20.9163Z" fill="#F2F2F2"/>
<path d="M549.908 40.7686C552.442 40.7686 554.497 38.6398 554.497 36.0137C554.497 33.3876 552.442 31.2588 549.908 31.2588C547.374 31.2588 545.32 33.3876 545.32 36.0137C545.32 38.6398 547.374 40.7686 549.908 40.7686Z" fill="#F2F2F2"/>
<path d="M531.623 40.7686C534.157 40.7686 536.211 38.6398 536.211 36.0137C536.211 33.3876 534.157 31.2588 531.623 31.2588C529.089 31.2588 527.035 33.3876 527.035 36.0137C527.035 38.6398 529.089 40.7686 531.623 40.7686Z" fill="#F2F2F2"/>
<path d="M513.338 40.7686C515.872 40.7686 517.926 38.6398 517.926 36.0137C517.926 33.3876 515.872 31.2588 513.338 31.2588C510.804 31.2588 508.75 33.3876 508.75 36.0137C508.75 38.6398 510.804 40.7686 513.338 40.7686Z" fill="#F2F2F2"/>
<path d="M495.052 40.7686C497.586 40.7686 499.64 38.6398 499.64 36.0137C499.64 33.3876 497.586 31.2588 495.052 31.2588C492.518 31.2588 490.464 33.3876 490.464 36.0137C490.464 38.6398 492.518 40.7686 495.052 40.7686Z" fill="#F2F2F2"/>
<path d="M549.908 60.621C552.442 60.621 554.497 58.4922 554.497 55.8661C554.497 53.2401 552.442 51.1112 549.908 51.1112C547.374 51.1112 545.32 53.2401 545.32 55.8661C545.32 58.4922 547.374 60.621 549.908 60.621Z" fill="#F2F2F2"/>
<path d="M531.623 60.621C534.157 60.621 536.211 58.4922 536.211 55.8661C536.211 53.2401 534.157 51.1112 531.623 51.1112C529.089 51.1112 527.035 53.2401 527.035 55.8661C527.035 58.4922 529.089 60.621 531.623 60.621Z" fill="#F2F2F2"/>
<path d="M513.338 60.621C515.872 60.621 517.926 58.4922 517.926 55.8661C517.926 53.2401 515.872 51.1112 513.338 51.1112C510.804 51.1112 508.75 53.2401 508.75 55.8661C508.75 58.4922 510.804 60.621 513.338 60.621Z" fill="#F2F2F2"/>
<path d="M495.052 60.621C497.586 60.621 499.64 58.4922 499.64 55.8661C499.64 53.2401 497.586 51.1112 495.052 51.1112C492.518 51.1112 490.464 53.2401 490.464 55.8661C490.464 58.4922 492.518 60.621 495.052 60.621Z" fill="#F2F2F2"/>
<path d="M549.908 80.4733C552.442 80.4733 554.497 78.3445 554.497 75.7184C554.497 73.0923 552.442 70.9635 549.908 70.9635C547.374 70.9635 545.32 73.0923 545.32 75.7184C545.32 78.3445 547.374 80.4733 549.908 80.4733Z" fill="#F2F2F2"/>
<path d="M531.623 80.4733C534.157 80.4733 536.211 78.3445 536.211 75.7184C536.211 73.0923 534.157 70.9635 531.623 70.9635C529.089 70.9635 527.035 73.0923 527.035 75.7184C527.035 78.3445 529.089 80.4733 531.623 80.4733Z" fill="#F2F2F2"/>
<path d="M513.338 80.4733C515.872 80.4733 517.926 78.3445 517.926 75.7184C517.926 73.0923 515.872 70.9635 513.338 70.9635C510.804 70.9635 508.75 73.0923 508.75 75.7184C508.75 78.3445 510.804 80.4733 513.338 80.4733Z" fill="#F2F2F2"/>
<path d="M495.052 80.4733C497.586 80.4733 499.64 78.3445 499.64 75.7184C499.64 73.0923 497.586 70.9635 495.052 70.9635C492.518 70.9635 490.464 73.0923 490.464 75.7184C490.464 78.3445 492.518 80.4733 495.052 80.4733Z" fill="#F2F2F2"/>
<path d="M549.908 100.325C552.442 100.325 554.497 98.1966 554.497 95.5706C554.497 92.9445 552.442 90.8157 549.908 90.8157C547.374 90.8157 545.32 92.9445 545.32 95.5706C545.32 98.1966 547.374 100.325 549.908 100.325Z" fill="#F2F2F2"/>
<path d="M531.623 100.325C534.157 100.325 536.211 98.1966 536.211 95.5706C536.211 92.9445 534.157 90.8157 531.623 90.8157C529.089 90.8157 527.035 92.9445 527.035 95.5706C527.035 98.1966 529.089 100.325 531.623 100.325Z" fill="#F2F2F2"/>
<path d="M513.338 100.325C515.872 100.325 517.926 98.1966 517.926 95.5706C517.926 92.9445 515.872 90.8157 513.338 90.8157C510.804 90.8157 508.75 92.9445 508.75 95.5706C508.75 98.1966 510.804 100.325 513.338 100.325Z" fill="#F2F2F2"/>
<path d="M495.052 100.325C497.586 100.325 499.64 98.1966 499.64 95.5706C499.64 92.9445 497.586 90.8157 495.052 90.8157C492.518 90.8157 490.464 92.9445 490.464 95.5706C490.464 98.1966 492.518 100.325 495.052 100.325Z" fill="#F2F2F2"/>
<path d="M549.908 120.178C552.442 120.178 554.497 118.049 554.497 115.423C554.497 112.797 552.442 110.668 549.908 110.668C547.374 110.668 545.32 112.797 545.32 115.423C545.32 118.049 547.374 120.178 549.908 120.178Z" fill="#F2F2F2"/>
<path d="M531.623 120.178C534.157 120.178 536.211 118.049 536.211 115.423C536.211 112.797 534.157 110.668 531.623 110.668C529.089 110.668 527.035 112.797 527.035 115.423C527.035 118.049 529.089 120.178 531.623 120.178Z" fill="#F2F2F2"/>
<path d="M513.338 120.178C515.872 120.178 517.926 118.049 517.926 115.423C517.926 112.797 515.872 110.668 513.338 110.668C510.804 110.668 508.75 112.797 508.75 115.423C508.75 118.049 510.804 120.178 513.338 120.178Z" fill="#F2F2F2"/>
<path d="M495.052 120.178C497.586 120.178 499.64 118.049 499.64 115.423C499.64 112.797 497.586 110.668 495.052 110.668C492.518 110.668 490.464 112.797 490.464 115.423C490.464 118.049 492.518 120.178 495.052 120.178Z" fill="#F2F2F2"/>
<path d="M542.099 327.902C545.411 320.487 548.72 312.963 550.158 304.93C551.595 296.897 550.992 288.179 546.875 281.211C542.758 274.243 534.652 269.518 526.917 271.093C520.563 272.387 515.461 277.573 512.474 283.527C509.487 289.48 508.288 296.196 507.126 302.797C506.751 295.297 506.353 287.677 503.949 280.592C501.545 273.507 496.812 266.905 490.065 264.164C483.319 261.422 474.543 263.578 470.987 270.122C465.978 279.341 472.62 292.272 466.86 301.008C465.872 292.245 457.03 285.322 448.627 286.732C440.224 288.141 433.94 297.6 435.669 306.238C436.698 311.378 440.081 315.75 444.127 318.908C448.173 322.067 452.878 325.727 457.532 327.797L542.099 327.902Z" fill="#F2F2F2"/>
<path d="M440.081 292.922C446.756 295.34 453.492 297.786 459.586 301.566C465.047 304.954 469.911 309.516 472.982 315.357C474.665 318.491 475.664 321.97 475.909 325.547C475.954 326.295 477.083 326.301 477.039 325.547C476.644 318.885 473.511 312.788 469.173 307.966C464.416 302.68 458.253 299.069 451.889 296.268C448.116 294.607 444.249 293.195 440.381 291.794C439.693 291.545 439.398 292.675 440.081 292.922H440.081Z" fill="white"/>
<path d="M478.582 265.325C482.683 272.406 485.967 279.961 488.367 287.836C490.771 295.708 492.286 303.843 492.88 312.077C493.209 316.686 493.245 321.313 492.987 325.927C492.945 326.679 494.075 326.677 494.117 325.927C494.572 317.608 494.086 309.262 492.669 301.06C491.254 292.859 488.928 284.855 485.738 277.208C483.947 272.912 481.883 268.745 479.557 264.735C479.479 264.606 479.356 264.514 479.214 264.478C479.071 264.442 478.921 264.465 478.795 264.542C478.668 264.618 478.575 264.743 478.536 264.889C478.496 265.035 478.513 265.192 478.582 265.325Z" fill="white"/>
<path d="M533.851 272.048C528.05 285.555 523.968 299.786 521.707 314.383C521.072 318.484 520.581 322.604 520.233 326.745C520.17 327.495 521.3 327.49 521.362 326.745C522.592 312.18 525.629 297.84 530.4 284.08C531.74 280.212 533.215 276.398 534.826 272.638C535.118 271.956 534.146 271.36 533.851 272.048Z" fill="white"/>
<path d="M568.291 327.705H0.709476C0.521311 327.705 0.340853 327.628 0.2078 327.49C0.0747476 327.352 0 327.165 0 326.97C0 326.775 0.0747476 326.588 0.2078 326.45C0.340853 326.312 0.521311 326.235 0.709476 326.235H568.291C568.479 326.235 568.659 326.312 568.792 326.45C568.925 326.588 569 326.775 569 326.97C569 327.165 568.925 327.352 568.792 327.49C568.659 327.628 568.479 327.705 568.291 327.705Z" fill="#3F3D56"/>
<path d="M293.909 140.1H195.485C194.07 140.099 192.714 139.516 191.713 138.479C190.713 137.442 190.15 136.036 190.148 134.57V5.53028C190.15 4.06407 190.713 2.65839 191.713 1.62162C192.714 0.584852 194.07 0.00166777 195.485 0H293.909C295.324 0.00166973 296.68 0.584855 297.681 1.62163C298.681 2.65841 299.244 4.0641 299.246 5.53031V134.57C299.244 136.036 298.681 137.442 297.681 138.479C296.68 139.516 295.324 140.099 293.909 140.1ZM195.485 1.22899C194.384 1.23027 193.329 1.68384 192.551 2.49022C191.773 3.2966 191.335 4.38992 191.334 5.53031V134.57C191.336 135.711 191.773 136.804 192.551 137.61C193.329 138.417 194.384 138.87 195.485 138.872H293.909C295.01 138.87 296.065 138.417 296.843 137.61C297.621 136.804 298.059 135.711 298.06 134.57V5.53031C298.059 4.38992 297.621 3.29661 296.843 2.49023C296.065 1.68385 295.01 1.23027 293.909 1.22899H195.485Z" fill="#3F3D56"/>
<path d="M236.51 62.0263H214.844C214.137 62.0255 213.459 61.7339 212.959 61.2155C212.458 60.6971 212.177 59.9942 212.176 59.2611V32.7652C212.177 32.0321 212.458 31.3292 212.959 30.8108C213.459 30.2924 214.137 30.0008 214.844 30H236.51C237.217 30.0008 237.895 30.2924 238.396 30.8108C238.896 31.3292 239.177 32.0321 239.178 32.7652V59.2611C239.177 59.9942 238.896 60.6971 238.396 61.2155C237.895 61.7339 237.217 62.0255 236.51 62.0263Z" fill="#FF8537"/>
<path d="M278.607 74.3158H256.942C256.234 74.315 255.556 74.0234 255.056 73.505C254.556 72.9866 254.274 72.2838 254.273 71.5507V45.0547C254.274 44.3216 254.556 43.6187 255.056 43.1003C255.556 42.582 256.234 42.2904 256.942 42.2896H278.607C279.314 42.2904 279.992 42.582 280.493 43.1003C280.993 43.6187 281.274 44.3216 281.275 45.0547V71.5507C281.274 72.2838 280.993 72.9866 280.493 73.505C279.992 74.0234 279.314 74.315 278.607 74.3158Z" fill="#CCCCCC"/>
<path d="M244.811 111.799H223.145C222.438 111.798 221.76 111.506 221.26 110.988C220.759 110.47 220.478 109.767 220.477 109.034V82.5376C220.478 81.8045 220.759 81.1016 221.26 80.5832C221.76 80.0648 222.438 79.7733 223.145 79.7725H244.811C245.518 79.7733 246.196 80.0648 246.696 80.5832C247.197 81.1016 247.478 81.8045 247.479 82.5376V109.034C247.478 109.767 247.197 110.47 246.696 110.988C246.196 111.506 245.518 111.798 244.811 111.799Z" fill="#FF6584"/>
<path d="M82.2502 13.4461C84.7842 13.4461 86.8383 11.3173 86.8383 8.69119C86.8383 6.06513 84.7842 3.93628 82.2502 3.93628C79.7163 3.93628 77.6621 6.06513 77.6621 8.69119C77.6621 11.3173 79.7163 13.4461 82.2502 13.4461Z" fill="#F2F2F2"/>
<path d="M82.2502 32.3964C84.7842 32.3964 86.8383 30.2676 86.8383 27.6415C86.8383 25.0154 84.7842 22.8866 82.2502 22.8866C79.7163 22.8866 77.6621 25.0154 77.6621 27.6415C77.6621 30.2676 79.7163 32.3964 82.2502 32.3964Z" fill="#F2F2F2"/>
<path d="M82.2502 51.3467C84.7842 51.3467 86.8383 49.2179 86.8383 46.5918C86.8383 43.9658 84.7842 41.8369 82.2502 41.8369C79.7163 41.8369 77.6621 43.9658 77.6621 46.5918C77.6621 49.2179 79.7163 51.3467 82.2502 51.3467Z" fill="#F2F2F2"/>
<path d="M82.2502 70.2969C84.7842 70.2969 86.8383 68.1681 86.8383 65.542C86.8383 62.916 84.7842 60.7871 82.2502 60.7871C79.7163 60.7871 77.6621 62.916 77.6621 65.542C77.6621 68.1681 79.7163 70.2969 82.2502 70.2969Z" fill="#F2F2F2"/>
<path d="M101.406 13.4461C103.94 13.4461 105.994 11.3173 105.994 8.69119C105.994 6.06513 103.94 3.93628 101.406 3.93628C98.872 3.93628 96.8179 6.06513 96.8179 8.69119C96.8179 11.3173 98.872 13.4461 101.406 13.4461Z" fill="#F2F2F2"/>
<path d="M101.406 32.3964C103.94 32.3964 105.994 30.2676 105.994 27.6415C105.994 25.0154 103.94 22.8866 101.406 22.8866C98.872 22.8866 96.8179 25.0154 96.8179 27.6415C96.8179 30.2676 98.872 32.3964 101.406 32.3964Z" fill="#F2F2F2"/>
<path d="M101.406 51.3467C103.94 51.3467 105.994 49.2179 105.994 46.5918C105.994 43.9658 103.94 41.8369 101.406 41.8369C98.872 41.8369 96.8179 43.9658 96.8179 46.5918C96.8179 49.2179 98.872 51.3467 101.406 51.3467Z" fill="#F2F2F2"/>
<path d="M101.406 70.2969C103.94 70.2969 105.994 68.1681 105.994 65.542C105.994 62.916 103.94 60.7871 101.406 60.7871C98.872 60.7871 96.8179 62.916 96.8179 65.542C96.8179 68.1681 98.872 70.2969 101.406 70.2969Z" fill="#F2F2F2"/>
<path d="M120.562 13.4461C123.096 13.4461 125.15 11.3173 125.15 8.69119C125.15 6.06513 123.096 3.93628 120.562 3.93628C118.028 3.93628 115.974 6.06513 115.974 8.69119C115.974 11.3173 118.028 13.4461 120.562 13.4461Z" fill="#F2F2F2"/>
<path d="M120.562 32.3964C123.096 32.3964 125.15 30.2676 125.15 27.6415C125.15 25.0154 123.096 22.8866 120.562 22.8866C118.028 22.8866 115.974 25.0154 115.974 27.6415C115.974 30.2676 118.028 32.3964 120.562 32.3964Z" fill="#F2F2F2"/>
<path d="M120.562 51.3467C123.096 51.3467 125.15 49.2179 125.15 46.5918C125.15 43.9658 123.096 41.8369 120.562 41.8369C118.028 41.8369 115.974 43.9658 115.974 46.5918C115.974 49.2179 118.028 51.3467 120.562 51.3467Z" fill="#F2F2F2"/>
<path d="M120.562 70.2969C123.096 70.2969 125.15 68.1681 125.15 65.542C125.15 62.916 123.096 60.7871 120.562 60.7871C118.028 60.7871 115.974 62.916 115.974 65.542C115.974 68.1681 118.028 70.2969 120.562 70.2969Z" fill="#F2F2F2"/>
<path d="M139.718 13.4461C142.252 13.4461 144.306 11.3173 144.306 8.69119C144.306 6.06513 142.252 3.93628 139.718 3.93628C137.184 3.93628 135.13 6.06513 135.13 8.69119C135.13 11.3173 137.184 13.4461 139.718 13.4461Z" fill="#F2F2F2"/>
<path d="M139.718 32.3964C142.252 32.3964 144.306 30.2676 144.306 27.6415C144.306 25.0154 142.252 22.8866 139.718 22.8866C137.184 22.8866 135.13 25.0154 135.13 27.6415C135.13 30.2676 137.184 32.3964 139.718 32.3964Z" fill="#F2F2F2"/>
<path d="M139.718 51.3467C142.252 51.3467 144.306 49.2179 144.306 46.5918C144.306 43.9658 142.252 41.8369 139.718 41.8369C137.184 41.8369 135.13 43.9658 135.13 46.5918C135.13 49.2179 137.184 51.3467 139.718 51.3467Z" fill="#F2F2F2"/>
<path d="M139.718 70.2969C142.252 70.2969 144.306 68.1681 144.306 65.542C144.306 62.916 142.252 60.7871 139.718 60.7871C137.184 60.7871 135.13 62.916 135.13 65.542C135.13 68.1681 137.184 70.2969 139.718 70.2969Z" fill="#F2F2F2"/>
<path d="M158.874 13.4461C161.407 13.4461 163.462 11.3173 163.462 8.69119C163.462 6.06513 161.407 3.93628 158.874 3.93628C156.34 3.93628 154.285 6.06513 154.285 8.69119C154.285 11.3173 156.34 13.4461 158.874 13.4461Z" fill="#F2F2F2"/>
<path d="M158.874 32.3964C161.407 32.3964 163.462 30.2676 163.462 27.6415C163.462 25.0154 161.407 22.8866 158.874 22.8866C156.34 22.8866 154.285 25.0154 154.285 27.6415C154.285 30.2676 156.34 32.3964 158.874 32.3964Z" fill="#F2F2F2"/>
<path d="M158.874 51.3467C161.407 51.3467 163.462 49.2179 163.462 46.5918C163.462 43.9658 161.407 41.8369 158.874 41.8369C156.34 41.8369 154.285 43.9658 154.285 46.5918C154.285 49.2179 156.34 51.3467 158.874 51.3467Z" fill="#F2F2F2"/>
<path d="M158.874 70.2969C161.407 70.2969 163.462 68.1681 163.462 65.542C163.462 62.916 161.407 60.7871 158.874 60.7871C156.34 60.7871 154.285 62.916 154.285 65.542C154.285 68.1681 156.34 70.2969 158.874 70.2969Z" fill="#F2F2F2"/>
<path d="M178.03 13.4461C180.563 13.4461 182.618 11.3173 182.618 8.69119C182.618 6.06513 180.563 3.93628 178.03 3.93628C175.496 3.93628 173.441 6.06513 173.441 8.69119C173.441 11.3173 175.496 13.4461 178.03 13.4461Z" fill="#F2F2F2"/>
<path d="M178.03 32.3964C180.563 32.3964 182.618 30.2676 182.618 27.6415C182.618 25.0154 180.563 22.8866 178.03 22.8866C175.496 22.8866 173.441 25.0154 173.441 27.6415C173.441 30.2676 175.496 32.3964 178.03 32.3964Z" fill="#F2F2F2"/>
<path d="M178.03 51.3467C180.563 51.3467 182.618 49.2179 182.618 46.5918C182.618 43.9658 180.563 41.8369 178.03 41.8369C175.496 41.8369 173.441 43.9658 173.441 46.5918C173.441 49.2179 175.496 51.3467 178.03 51.3467Z" fill="#F2F2F2"/>
<path d="M178.03 70.2969C180.563 70.2969 182.618 68.1681 182.618 65.542C182.618 62.916 180.563 60.7871 178.03 60.7871C175.496 60.7871 173.441 62.916 173.441 65.542C173.441 68.1681 175.496 70.2969 178.03 70.2969Z" fill="#F2F2F2"/>
<path d="M128.447 334.132C144.909 334.132 158.254 320.301 158.254 303.241C158.254 286.181 144.909 272.351 128.447 272.351C111.985 272.351 98.6401 286.181 98.6401 303.241C98.6401 320.301 111.985 334.132 128.447 334.132Z" fill="#2F2E41"/>
<path d="M117.113 323.536L102.606 331.065L106.661 339.456L121.167 331.927L117.113 323.536Z" fill="#2F2E41"/>
<path d="M108.573 338.605C109.433 337.252 107.31 334.229 103.831 331.851C100.352 329.474 96.8337 328.643 95.9735 329.995C95.1132 331.347 97.2363 334.371 100.716 336.748C104.195 339.126 107.713 339.957 108.573 338.605Z" fill="#2F2E41"/>
<path d="M139.782 323.536L135.727 331.927L150.233 339.456L154.288 331.065L139.782 323.536Z" fill="#2F2E41"/>
<path d="M156.178 336.748C159.658 334.371 161.781 331.347 160.921 329.995C160.06 328.643 156.542 329.474 153.063 331.851C149.584 334.229 147.461 337.252 148.321 338.605C149.181 339.957 152.699 339.126 156.178 336.748Z" fill="#2F2E41"/>
<path d="M126.36 306.243C131.986 306.243 136.547 301.516 136.547 295.685C136.547 289.854 131.986 285.128 126.36 285.128C120.734 285.128 116.173 289.854 116.173 295.685C116.173 301.516 120.734 306.243 126.36 306.243Z" fill="white"/>
<path d="M120.395 295.94C124.03 293.071 128.139 297.329 125.37 301.096C121.736 303.965 117.627 299.707 120.395 295.94Z" fill="#3F3D56"/>
<path d="M151.96 269.636C152.408 258.199 142.898 248.513 130.718 248C118.538 247.488 108.301 256.343 107.852 267.779C107.404 279.215 115.871 281.813 128.051 282.326C140.231 282.839 151.512 281.072 151.96 269.636Z" fill="#CCCCCC"/>
<path d="M169.142 319.416C171.102 317.672 168.345 311.011 162.984 304.539C157.623 298.067 151.687 294.234 149.726 295.978C147.766 297.722 150.523 304.383 155.884 310.856C161.246 317.328 167.181 321.161 169.142 319.416Z" fill="#2F2E41"/>
<path d="M101.093 310.855C106.455 304.383 109.211 297.722 107.251 295.978C105.29 294.234 99.3547 298.066 93.9933 304.539C88.6319 311.011 85.875 317.672 87.8356 319.416C89.7962 321.161 95.7318 317.328 101.093 310.855Z" fill="#2F2E41"/>
<path d="M136.633 315.415C136.794 316.324 136.78 317.258 136.592 318.162C136.405 319.066 136.047 319.923 135.539 320.684C135.032 321.444 134.385 322.094 133.635 322.595C132.885 323.097 132.047 323.44 131.169 323.606C130.291 323.771 129.391 323.756 128.518 323.561C127.646 323.365 126.82 322.994 126.086 322.467C125.352 321.941 124.726 321.269 124.243 320.492C123.76 319.714 123.429 318.846 123.27 317.936L123.268 317.922C122.6 314.097 125.453 312.744 129.144 312.051C132.835 311.359 135.965 311.59 136.633 315.415Z" fill="white"/>
<path d="M443.633 240.671H403.895C403.895 241.159 403.708 241.626 403.376 241.971C403.043 242.315 402.592 242.509 402.122 242.509H363.115C362.564 242.939 362.062 243.433 361.618 243.98C360.284 245.628 359.556 247.711 359.56 249.862V251.333C359.561 253.77 360.496 256.107 362.159 257.83C363.821 259.554 366.077 260.523 368.429 260.523H443.633C445.985 260.521 448.239 259.552 449.902 257.829C451.564 256.106 452.5 253.769 452.502 251.333V249.862C452.498 247.425 451.563 245.09 449.9 243.367C448.238 241.644 445.984 240.675 443.633 240.671Z" fill="#3F3D56"/>
<path d="M410.994 260.158H401.771V327.803H410.994V260.158Z" fill="#3F3D56"/>
<path d="M437.244 327.467C437.244 328.5 423.268 327.867 406.028 327.867C388.787 327.867 374.811 328.5 374.811 327.467C374.811 326.435 388.787 318.245 406.028 318.245C423.268 318.245 437.244 326.435 437.244 327.467Z" fill="#3F3D56"/>
<path d="M441.895 242.789L440.348 232.76C440.152 231.496 439.48 230.364 438.48 229.613C437.48 228.862 436.233 228.552 435.013 228.752L419.057 231.392L391.728 235.914L382.838 237.385H402.122C402.592 237.385 403.043 237.578 403.376 237.923C403.708 238.268 403.895 238.735 403.895 239.223V240.671C403.895 241.159 403.708 241.626 403.376 241.971C403.043 242.315 402.592 242.509 402.122 242.509H353.047C352.362 242.841 351.769 243.347 351.323 243.98C350.946 244.494 350.673 245.083 350.522 245.71C350.371 246.337 350.344 246.989 350.444 247.627L350.883 250.48L351.415 253.943L351.99 257.663C352.186 258.924 352.855 260.053 353.853 260.803C354.85 261.553 356.094 261.862 357.311 261.663L369.99 259.568L406.556 253.516L438.028 248.311C439.245 248.105 440.335 247.409 441.059 246.375C441.783 245.341 442.084 244.052 441.895 242.789Z" fill="#FF8537"/>
<path d="M369.017 243.98C368.551 243.338 367.933 242.832 367.223 242.509H353.657C352.944 242.829 352.323 243.336 351.855 243.98C351.224 244.818 350.882 245.851 350.883 246.914V302.949C350.885 304.225 351.375 305.449 352.246 306.352C353.118 307.255 354.299 307.763 355.531 307.765H365.343C366.575 307.763 367.756 307.255 368.627 306.352C369.498 305.449 369.988 304.225 369.99 302.949V246.914C369.99 245.851 369.648 244.818 369.017 243.98Z" fill="#FF8537"/>
<path d="M398.546 148.542L398.454 148.417L392.367 140.645C392.043 140.228 391.651 139.872 391.21 139.594C390.977 139.43 390.724 139.296 390.458 139.197C390.07 139.035 389.661 138.931 389.245 138.888C388.967 138.857 388.687 138.852 388.408 138.873C388.402 138.874 388.397 138.876 388.394 138.88C387.453 138.952 386.556 139.322 385.825 139.939L373.331 150.439L357.276 163.938L333.317 184.085L331.572 185.555H361.888L363.64 184.085L369.437 179.21L369.848 178.872L397.844 155.336L397.865 155.321C398.441 154.84 398.897 154.222 399.192 153.52C399.387 153.059 399.511 152.571 399.561 152.071C399.625 151.442 399.569 150.807 399.395 150.201C399.221 149.595 398.932 149.031 398.546 148.542Z" fill="#FF8537"/>
<path d="M398.454 148.417C398.063 146.436 397.194 144.589 395.928 143.049C394.667 141.498 393.043 140.308 391.21 139.594C390.926 139.483 390.65 139.38 390.366 139.299C389.726 139.102 389.071 138.959 388.408 138.873C388.402 138.874 388.397 138.876 388.394 138.88C385.409 138.523 382.406 139.382 380.022 141.277L358.411 158.394C357.952 158.82 357.581 159.336 357.319 159.914C357.057 160.491 356.909 161.117 356.886 161.755C356.852 162.504 356.986 163.251 357.276 163.938C357.347 164.093 357.425 164.247 357.51 164.394C357.676 164.693 357.876 164.969 358.106 165.218L361.568 169.247L369.621 178.607L369.848 178.872L370.366 179.482C370.778 179.95 371.275 180.33 371.829 180.598C372.383 180.867 372.983 181.02 373.594 181.048C374.205 181.076 374.815 180.979 375.39 180.762C375.964 180.545 376.492 180.212 376.943 179.783L395.58 159.034C396.549 157.957 397.316 156.703 397.844 155.336C398.695 153.141 398.907 150.735 398.454 148.417Z" fill="#2F2E41"/>
<path d="M406.694 121.792C426.333 121.792 442.254 105.292 442.254 84.9387C442.254 64.5852 426.333 48.0854 406.694 48.0854C387.054 48.0854 371.133 64.5852 371.133 84.9387C371.133 105.292 387.054 121.792 406.694 121.792Z" fill="#FF8537"/>
<path d="M420.029 237.715L419.057 231.392L418.482 227.679C418.287 226.417 417.616 225.287 416.617 224.537C415.618 223.787 414.372 223.478 413.154 223.679L387.308 227.951L380.299 229.113L378.88 229.348V237.385H402.122C402.592 237.385 403.043 237.578 403.376 237.923C403.708 238.268 403.895 238.735 403.896 239.223V240.671C403.895 241.159 403.708 241.626 403.376 241.971C403.043 242.315 402.592 242.509 402.122 242.509H328.571C328.571 242.524 328.577 242.539 328.577 242.553L329.017 245.406L330.124 252.583C330.32 253.843 330.99 254.973 331.987 255.722C332.985 256.472 334.228 256.781 335.445 256.582L348.124 254.487L350.883 254.031L351.415 253.943L369.99 250.869L382.626 248.774L402.675 245.458L402.973 245.406L416.162 243.23C417.38 243.028 418.47 242.334 419.195 241.3C419.92 240.267 420.22 238.978 420.029 237.715Z" fill="#FF8537"/>
<path d="M455.092 210.672C455.092 240.715 452.147 258.685 406.741 253.539C406.677 253.531 406.62 253.524 406.556 253.516C398.458 252.687 390.448 251.1 382.626 248.774C378.561 247.544 374.61 245.939 370.82 243.98C369.926 243.509 369.068 243.017 368.223 242.509H402.122C402.592 242.509 403.044 242.316 403.376 241.971C403.709 241.626 403.896 241.159 403.896 240.671V239.223C403.896 238.735 403.709 238.268 403.376 237.923C403.044 237.579 402.592 237.385 402.122 237.385H378.88V190.945C378.878 189.516 378.329 188.146 377.354 187.136C376.38 186.126 375.058 185.557 373.679 185.555H374.637C374.8 185.07 374.963 184.577 375.141 184.085C376.865 179.122 376.695 175.218 379.143 170.358C382.506 163.652 382.527 156.909 386.947 151.24C390.239 147.027 380.157 142.432 383.86 139.27C390.976 133.182 398.724 129.417 406.585 129.417C435.574 129.417 455.092 180.629 455.092 210.672Z" fill="#2F2E41"/>
<path d="M407.441 98.5978L407.478 97.2206C405.005 97.1494 402.826 96.9887 401.188 95.7486C400.724 95.3771 400.342 94.9063 400.069 94.3682C399.796 93.8301 399.638 93.2374 399.606 92.6304C399.577 92.2595 399.631 91.8867 399.764 91.5411C399.897 91.1954 400.105 90.8861 400.372 90.6373C401.459 89.6857 403.208 89.9937 404.483 90.5996L405.583 91.1221L403.474 75.1532L402.158 75.3401L403.951 88.9238C403.217 88.6415 402.426 88.5542 401.651 88.6698C400.876 88.7854 400.142 89.1002 399.514 89.5855C399.092 89.9675 398.761 90.4454 398.546 90.982C398.332 91.5186 398.24 92.0993 398.278 92.6788C398.317 93.4944 398.527 94.2913 398.894 95.0138C399.262 95.7362 399.777 96.3666 400.404 96.8609C402.509 98.4545 405.243 98.5339 407.441 98.5978Z" fill="#2F2E41"/>
<path d="M395.647 76.5117H388.49V77.8889H395.647V76.5117Z" fill="#2F2E41"/>
<path d="M418.238 76.5117H411.081V77.8889H418.238V76.5117Z" fill="#2F2E41"/>
<path d="M427.834 159.078L425.017 157.049L419.774 153.277C418.76 152.55 417.51 152.27 416.297 152.498C415.084 152.725 414.007 153.442 413.303 154.49L396.212 179.982L380.299 203.716L378.88 205.834V237.384H379.007C380.114 237.271 381.143 236.749 381.909 235.914C382.073 235.739 382.223 235.549 382.356 235.348L387.308 227.951L399.547 209.694L412.232 190.783L413.438 188.982L428.99 165.784C429.075 165.661 429.153 165.533 429.224 165.401C429.295 165.275 429.359 165.145 429.416 165.012C429.862 163.987 429.948 162.833 429.659 161.749C429.37 160.665 428.724 159.72 427.834 159.078Z" fill="#FF8537"/>
<path d="M427.883 148.99C427.381 148.649 426.855 148.349 426.308 148.093C423.884 146.942 421.152 146.691 418.57 147.382C415.988 148.073 413.715 149.664 412.132 151.887L395.985 174.578C395.66 175.118 395.443 175.72 395.345 176.348C395.247 176.976 395.271 177.618 395.415 178.237C395.559 178.855 395.82 179.438 396.184 179.951C396.547 180.464 397.005 180.897 397.531 181.224L412.232 190.783L412.416 190.901L413.154 191.379C414.209 192.04 415.474 192.241 416.672 191.937C417.87 191.634 418.904 190.852 419.547 189.761L430.948 166.306L431.139 165.916L431.146 165.909L431.849 164.446C433.13 161.813 433.433 158.785 432.702 155.936C431.971 153.087 430.256 150.615 427.883 148.99Z" fill="#2F2E41"/>
<path d="M329.018 242.509V297.868C329.019 299.145 329.51 300.368 330.381 301.271C331.252 302.174 332.433 302.682 333.665 302.684H343.477C344.709 302.682 345.89 302.174 346.761 301.271C347.632 300.369 348.122 299.145 348.124 297.868V242.509H329.018Z" fill="#FF8537"/>
<path d="M402.122 235.914H380.299V190.945C380.297 189.126 379.599 187.382 378.358 186.096C377.117 184.81 375.434 184.087 373.679 184.085H292.749C290.993 184.085 289.309 184.808 288.066 186.094C286.824 187.38 286.125 189.125 286.123 190.945V237.12C286.125 238.94 286.824 240.684 288.066 241.971C289.309 243.257 290.993 243.979 292.749 243.98H402.122C402.236 243.98 402.342 243.973 402.448 243.965C402.548 243.958 402.647 243.936 402.746 243.921C403.47 243.769 404.121 243.363 404.589 242.771C405.057 242.178 405.314 241.437 405.315 240.671V239.223C405.315 238.345 404.978 237.504 404.379 236.883C403.781 236.263 402.969 235.914 402.122 235.914ZM402.122 242.509H292.749C291.369 242.509 290.046 241.941 289.07 240.931C288.093 239.92 287.544 238.55 287.542 237.12V190.945C287.544 189.515 288.093 188.145 289.07 187.134C290.046 186.124 291.369 185.556 292.749 185.555H373.679C375.058 185.557 376.379 186.126 377.354 187.136C378.329 188.146 378.878 189.516 378.88 190.945V237.385H402.122C402.592 237.385 403.043 237.578 403.376 237.923C403.709 238.268 403.895 238.735 403.896 239.223V240.671C403.895 241.159 403.709 241.626 403.376 241.971C403.043 242.315 402.592 242.509 402.122 242.509Z" fill="#3F3D56"/>
<path d="M333.211 219.687C336.225 219.687 338.667 217.156 338.667 214.033C338.667 210.91 336.225 208.379 333.211 208.379C330.198 208.379 327.755 210.91 327.755 214.033C327.755 217.156 330.198 219.687 333.211 219.687Z" fill="#FF8537"/>
<path d="M380.277 236.693H378.858V243.311H380.277V236.693Z" fill="#3F3D56"/>
<path d="M160.734 191.435C163.747 183.267 164.183 175.851 161.709 174.871C159.235 173.891 154.787 179.718 151.774 187.886C148.762 196.054 148.326 203.47 150.8 204.45C153.274 205.43 157.722 199.603 160.734 191.435Z" fill="#2F2E41"/>
<path d="M158.173 218.646C160.876 201.383 149.564 185.117 132.907 182.316C116.249 179.514 100.555 191.238 97.8514 208.501C95.1483 225.764 106.46 242.029 123.118 244.83C139.775 247.632 155.47 235.908 158.173 218.646Z" fill="#2F2E41"/>
<path d="M123.371 238.425H114.088V255.661H123.371V238.425Z" fill="#2F2E41"/>
<path d="M141.936 238.425H132.654V255.661H141.936V238.425Z" fill="#2F2E41"/>
<path d="M121.824 258.868C126.096 258.868 129.559 257.522 129.559 255.861C129.559 254.201 126.096 252.855 121.824 252.855C117.552 252.855 114.088 254.201 114.088 255.861C114.088 257.522 117.552 258.868 121.824 258.868Z" fill="#2F2E41"/>
<path d="M140.389 258.467C144.661 258.467 148.125 257.121 148.125 255.461C148.125 253.8 144.661 252.454 140.389 252.454C136.117 252.454 132.654 253.8 132.654 255.461C132.654 257.121 136.117 258.467 140.389 258.467Z" fill="#2F2E41"/>
<path d="M129.092 216.374C134.857 216.199 139.394 211.213 139.224 205.238C139.055 199.264 134.244 194.563 128.479 194.738C122.714 194.914 118.178 199.9 118.347 205.874C118.517 211.849 123.327 216.55 129.092 216.374Z" fill="white"/>
<path d="M128.786 209.164C130.708 209.164 132.267 207.549 132.267 205.556C132.267 203.564 130.708 201.949 128.786 201.949C126.863 201.949 125.305 203.564 125.305 205.556C125.305 207.549 126.863 209.164 128.786 209.164Z" fill="#3F3D56"/>
<path d="M98.3726 184.125C95.9054 172.674 103.792 161.103 115.988 158.281C128.184 155.458 140.071 162.453 142.538 173.904C145.005 185.355 136.922 189.579 124.726 192.401C112.531 195.223 100.84 195.576 98.3726 184.125Z" fill="#FF8537"/>
<path d="M107.401 205.665C108.536 203.185 103.276 198.136 95.6521 194.389C88.0285 190.642 80.9282 189.615 79.7931 192.095C78.658 194.575 83.918 199.624 91.5416 203.371C99.1652 207.118 106.265 208.145 107.401 205.665Z" fill="#2F2E41"/>
<path d="M113.003 224.997C113.003 228.096 120.704 234.216 129.248 234.216C137.792 234.216 145.804 225.491 145.804 222.392C145.804 219.292 137.792 222.993 129.248 222.993C120.704 222.993 113.003 221.898 113.003 224.997Z" fill="white"/>
<path d="M186.978 206.786L164.487 211.336C164.122 211.411 163.746 211.399 163.387 211.3C163.028 211.202 162.696 211.02 162.415 210.768C162.128 210.513 161.901 210.194 161.752 209.835C161.602 209.475 161.534 209.085 161.552 208.694C161.935 199.136 160.143 189.619 156.319 180.912C156.16 180.556 156.082 180.168 156.09 179.777C156.099 179.386 156.193 179.002 156.366 178.654C156.535 178.311 156.777 178.013 157.074 177.782C157.371 177.551 157.715 177.393 158.08 177.32L180.571 172.77C181.146 172.655 181.742 172.755 182.252 173.053C182.762 173.35 183.154 173.826 183.358 174.395C186.685 183.973 188.578 194.023 188.971 204.195C188.989 204.801 188.798 205.394 188.433 205.869C188.068 206.344 187.552 206.668 186.978 206.786Z" fill="#FF6584"/>
<path d="M88.3605 228.109L65.8691 232.659C65.5048 232.734 65.1289 232.721 64.7699 232.623C64.4109 232.525 64.0782 232.343 63.7973 232.091C63.5107 231.836 63.284 231.517 63.1344 231.158C62.9848 230.798 62.9163 230.408 62.9342 230.017C63.3178 220.459 61.5251 210.942 57.7011 202.235C57.5428 201.879 57.4648 201.491 57.473 201.1C57.4812 200.709 57.5755 200.325 57.7486 199.977C57.9175 199.634 58.1597 199.336 58.4566 199.105C58.7536 198.874 59.0975 198.716 59.4622 198.643L81.9536 194.093C82.5286 193.978 83.1242 194.078 83.6346 194.376C84.145 194.673 84.537 195.149 84.7408 195.718C88.0677 205.296 89.9606 215.346 90.3536 225.517C90.3712 226.124 90.1806 226.717 89.8156 227.192C89.4506 227.666 88.935 227.991 88.3605 228.109Z" fill="#CCCCCC"/>
<path d="M416.925 59.066C410.523 62.0279 403.259 62.2895 396.674 59.7955C391.845 57.8768 387.66 54.541 384.632 50.1962C381.604 45.8514 379.863 40.686 379.624 35.3321L378.022 36.2844L384.773 41.2074C384.915 41.2914 385.072 41.341 385.235 41.3524C385.397 41.3637 385.56 41.3366 385.71 41.2731C385.861 41.2095 385.996 41.1113 386.104 40.9857C386.213 40.8601 386.292 40.7105 386.337 40.5483C386.811 38.5793 387.672 36.7329 388.866 35.1243C390.06 33.5156 391.561 32.1794 393.275 31.199C397.035 29.0261 401.405 28.2726 405.641 29.0672C414.413 30.542 422.31 36.6026 427.448 43.9516C430.252 47.9497 432.33 52.4443 433.579 57.2149C433.662 57.4879 433.843 57.7171 434.086 57.854C434.328 57.991 434.612 58.025 434.879 57.949C435.145 57.8729 435.372 57.6927 435.512 57.4464C435.653 57.2 435.696 56.9068 435.631 56.6285C433.184 47.3544 427.806 39.1987 420.358 33.4658C412.735 27.5992 402.062 24.0534 393.095 28.7891C388.827 31.043 385.353 35.0557 384.284 39.9619L385.848 39.3028L379.096 34.3797C378.934 34.2839 378.751 34.2337 378.564 34.2339C378.378 34.2342 378.195 34.2849 378.033 34.3811C377.871 34.4774 377.736 34.6157 377.642 34.7825C377.548 34.9493 377.497 35.1387 377.495 35.3321C377.829 42.7621 380.798 49.803 385.831 55.105C391.093 60.5546 398.212 63.6405 405.65 63.6963C409.91 63.7449 414.128 62.814 418 60.9706C419.243 60.3803 418.163 58.4785 416.925 59.066Z" fill="#2F2E41"/>
<path d="M118.251 335.402L95.7599 339.952C95.3957 340.027 95.0197 340.015 94.6607 339.916C94.3017 339.818 93.9691 339.636 93.6882 339.384C93.4016 339.129 93.1749 338.81 93.0253 338.451C92.8757 338.091 92.8072 337.702 92.825 337.311C93.2087 327.752 91.416 318.235 87.5919 309.528C87.4336 309.172 87.3556 308.784 87.3639 308.393C87.3721 308.002 87.4664 307.618 87.6395 307.27C87.8084 306.927 88.0505 306.629 88.3475 306.398C88.6444 306.167 88.9884 306.009 89.3531 305.936L111.845 301.386C112.419 301.271 113.015 301.372 113.526 301.669C114.036 301.966 114.428 302.442 114.632 303.011C117.959 312.589 119.851 322.639 120.244 332.811C120.262 333.417 120.071 334.011 119.706 334.485C119.342 334.96 118.826 335.285 118.251 335.402Z" fill="#FF8537"/>
</g>
<defs>
<clipPath id="clip0_724_394">
<rect width="569" height="340" fill="white"/>
</clipPath>
</defs>
</svg>
