<svg width="569" height="354" viewBox="0 0 569 354" fill="none" xmlns="http://www.w3.org/2000/svg">
<g clip-path="url(#clip0_724_887)">
<path d="M549.908 21.7776C552.442 21.7776 554.497 19.5611 554.497 16.8269C554.497 14.0927 552.442 11.8762 549.908 11.8762C547.374 11.8762 545.32 14.0927 545.32 16.8269C545.32 19.5611 547.374 21.7776 549.908 21.7776Z" fill="#C0C0C0"/>
<path d="M531.623 21.7776C534.157 21.7776 536.211 19.5611 536.211 16.8269C536.211 14.0927 534.157 11.8762 531.623 11.8762C529.089 11.8762 527.035 14.0927 527.035 16.8269C527.035 19.5611 529.089 21.7776 531.623 21.7776Z" fill="#C0C0C0"/>
<path d="M513.338 21.7776C515.872 21.7776 517.926 19.5611 517.926 16.8269C517.926 14.0927 515.872 11.8762 513.338 11.8762C510.804 11.8762 508.75 14.0927 508.75 16.8269C508.75 19.5611 510.804 21.7776 513.338 21.7776Z" fill="#C0C0C0"/>
<path d="M495.052 21.7776C497.586 21.7776 499.64 19.5611 499.64 16.8269C499.64 14.0927 497.586 11.8762 495.052 11.8762C492.518 11.8762 490.464 14.0927 490.464 16.8269C490.464 19.5611 492.518 21.7776 495.052 21.7776Z" fill="#C0C0C0"/>
<path d="M549.908 42.4474C552.442 42.4474 554.497 40.2309 554.497 37.4967C554.497 34.7625 552.442 32.546 549.908 32.546C547.374 32.546 545.32 34.7625 545.32 37.4967C545.32 40.2309 547.374 42.4474 549.908 42.4474Z" fill="#C0C0C0"/>
<path d="M531.623 42.4474C534.157 42.4474 536.211 40.2309 536.211 37.4967C536.211 34.7625 534.157 32.546 531.623 32.546C529.089 32.546 527.035 34.7625 527.035 37.4967C527.035 40.2309 529.089 42.4474 531.623 42.4474Z" fill="#C0C0C0"/>
<path d="M513.338 42.4474C515.872 42.4474 517.926 40.2309 517.926 37.4967C517.926 34.7625 515.872 32.546 513.338 32.546C510.804 32.546 508.75 34.7625 508.75 37.4967C508.75 40.2309 510.804 42.4474 513.338 42.4474Z" fill="#C0C0C0"/>
<path d="M495.052 42.4474C497.586 42.4474 499.64 40.2309 499.64 37.4967C499.64 34.7625 497.586 32.546 495.052 32.546C492.518 32.546 490.464 34.7625 490.464 37.4967C490.464 40.2309 492.518 42.4474 495.052 42.4474Z" fill="#C0C0C0"/>
<path d="M549.908 63.1171C552.442 63.1171 554.497 60.9006 554.497 58.1664C554.497 55.4322 552.442 53.2157 549.908 53.2157C547.374 53.2157 545.32 55.4322 545.32 58.1664C545.32 60.9006 547.374 63.1171 549.908 63.1171Z" fill="#C0C0C0"/>
<path d="M531.623 63.1171C534.157 63.1171 536.211 60.9006 536.211 58.1664C536.211 55.4322 534.157 53.2157 531.623 53.2157C529.089 53.2157 527.035 55.4322 527.035 58.1664C527.035 60.9006 529.089 63.1171 531.623 63.1171Z" fill="#C0C0C0"/>
<path d="M513.338 63.1171C515.872 63.1171 517.926 60.9006 517.926 58.1664C517.926 55.4322 515.872 53.2157 513.338 53.2157C510.804 53.2157 508.75 55.4322 508.75 58.1664C508.75 60.9006 510.804 63.1171 513.338 63.1171Z" fill="#C0C0C0"/>
<path d="M495.052 63.1171C497.586 63.1171 499.64 60.9006 499.64 58.1664C499.64 55.4322 497.586 53.2157 495.052 53.2157C492.518 53.2157 490.464 55.4322 490.464 58.1664C490.464 60.9006 492.518 63.1171 495.052 63.1171Z" fill="#C0C0C0"/>
<path d="M549.908 83.7869C552.442 83.7869 554.497 81.5704 554.497 78.8362C554.497 76.102 552.442 73.8855 549.908 73.8855C547.374 73.8855 545.32 76.102 545.32 78.8362C545.32 81.5704 547.374 83.7869 549.908 83.7869Z" fill="#C0C0C0"/>
<path d="M531.623 83.7869C534.157 83.7869 536.211 81.5704 536.211 78.8362C536.211 76.102 534.157 73.8855 531.623 73.8855C529.089 73.8855 527.035 76.102 527.035 78.8362C527.035 81.5704 529.089 83.7869 531.623 83.7869Z" fill="#C0C0C0"/>
<path d="M513.338 83.7869C515.872 83.7869 517.926 81.5704 517.926 78.8362C517.926 76.102 515.872 73.8855 513.338 73.8855C510.804 73.8855 508.75 76.102 508.75 78.8362C508.75 81.5704 510.804 83.7869 513.338 83.7869Z" fill="#C0C0C0"/>
<path d="M495.052 83.7869C497.586 83.7869 499.64 81.5704 499.64 78.8362C499.64 76.102 497.586 73.8855 495.052 73.8855C492.518 73.8855 490.464 76.102 490.464 78.8362C490.464 81.5704 492.518 83.7869 495.052 83.7869Z" fill="#C0C0C0"/>
<path d="M549.908 104.457C552.442 104.457 554.497 102.24 554.497 99.5059C554.497 96.7717 552.442 94.5552 549.908 94.5552C547.374 94.5552 545.32 96.7717 545.32 99.5059C545.32 102.24 547.374 104.457 549.908 104.457Z" fill="#C0C0C0"/>
<path d="M531.623 104.457C534.157 104.457 536.211 102.24 536.211 99.5059C536.211 96.7717 534.157 94.5552 531.623 94.5552C529.089 94.5552 527.035 96.7717 527.035 99.5059C527.035 102.24 529.089 104.457 531.623 104.457Z" fill="#C0C0C0"/>
<path d="M513.338 104.457C515.872 104.457 517.926 102.24 517.926 99.5059C517.926 96.7717 515.872 94.5552 513.338 94.5552C510.804 94.5552 508.75 96.7717 508.75 99.5059C508.75 102.24 510.804 104.457 513.338 104.457Z" fill="#C0C0C0"/>
<path d="M495.052 104.457C497.586 104.457 499.64 102.24 499.64 99.5059C499.64 96.7717 497.586 94.5552 495.052 94.5552C492.518 94.5552 490.464 96.7717 490.464 99.5059C490.464 102.24 492.518 104.457 495.052 104.457Z" fill="#C0C0C0"/>
<path d="M549.908 125.126C552.442 125.126 554.497 122.91 554.497 120.176C554.497 117.441 552.442 115.225 549.908 115.225C547.374 115.225 545.32 117.441 545.32 120.176C545.32 122.91 547.374 125.126 549.908 125.126Z" fill="#C0C0C0"/>
<path d="M531.623 125.126C534.157 125.126 536.211 122.91 536.211 120.176C536.211 117.441 534.157 115.225 531.623 115.225C529.089 115.225 527.035 117.441 527.035 120.176C527.035 122.91 529.089 125.126 531.623 125.126Z" fill="#C0C0C0"/>
<path d="M513.338 125.126C515.872 125.126 517.926 122.91 517.926 120.176C517.926 117.441 515.872 115.225 513.338 115.225C510.804 115.225 508.75 117.441 508.75 120.176C508.75 122.91 510.804 125.126 513.338 125.126Z" fill="#C0C0C0"/>
<path d="M495.052 125.126C497.586 125.126 499.64 122.91 499.64 120.176C499.64 117.441 497.586 115.225 495.052 115.225C492.518 115.225 490.464 117.441 490.464 120.176C490.464 122.91 492.518 125.126 495.052 125.126Z" fill="#C0C0C0"/>
<path d="M542.099 341.403C545.411 333.684 548.72 325.85 550.158 317.486C551.595 309.122 550.992 300.045 546.875 292.79C542.758 285.535 534.652 280.616 526.917 282.256C520.563 283.603 515.461 289.002 512.474 295.201C509.487 301.4 508.288 308.392 507.126 315.265C506.751 307.456 506.353 299.522 503.949 292.146C501.545 284.769 496.812 277.895 490.065 275.041C483.319 272.187 474.543 274.431 470.987 281.244C465.978 290.843 472.62 304.307 466.86 313.402C465.872 304.279 457.03 297.071 448.627 298.538C440.224 300.005 433.94 309.854 435.669 318.848C436.698 324.199 440.081 328.751 444.127 332.039C448.173 335.328 452.878 339.139 457.532 341.295L542.099 341.403Z" fill="#C0C0C0"/>
<path d="M440.081 304.984C446.756 307.501 453.492 310.047 459.586 313.983C465.047 317.511 469.911 322.26 472.982 328.343C474.665 331.606 475.664 335.227 475.909 338.952C475.954 339.731 477.083 339.736 477.039 338.952C476.644 332.015 473.511 325.667 469.173 320.647C464.416 315.143 458.253 311.384 451.889 308.467C448.116 306.738 444.249 305.268 440.381 303.809C439.693 303.55 439.398 304.726 440.081 304.984H440.081Z" fill="white"/>
<path d="M478.582 276.251C482.683 283.623 485.967 291.489 488.367 299.688C490.771 307.884 492.286 316.354 492.88 324.927C493.209 329.726 493.245 334.543 492.987 339.348C492.945 340.131 494.075 340.128 494.117 339.348C494.572 330.686 494.086 321.996 492.669 313.456C491.254 304.918 488.928 296.584 485.738 288.622C483.947 284.15 481.883 279.811 479.557 275.636C479.479 275.502 479.356 275.406 479.214 275.369C479.071 275.331 478.921 275.355 478.795 275.435C478.668 275.515 478.575 275.644 478.536 275.796C478.496 275.949 478.513 276.111 478.582 276.251Z" fill="white"/>
<path d="M533.851 283.25C528.05 297.313 523.968 312.13 521.707 327.329C521.072 331.598 520.581 335.888 520.233 340.199C520.17 340.98 521.3 340.975 521.362 340.199C522.592 325.034 525.629 310.104 530.4 295.778C531.74 291.75 533.215 287.779 534.826 283.865C535.118 283.154 534.146 282.534 533.851 283.25Z" fill="white"/>
<path d="M568.291 341.199H0.709476C0.521311 341.199 0.340853 341.118 0.2078 340.975C0.0747476 340.831 0 340.637 0 340.434C0 340.23 0.0747476 340.036 0.2078 339.892C0.340853 339.749 0.521311 339.668 0.709476 339.668H568.291C568.479 339.668 568.659 339.749 568.792 339.892C568.925 340.036 569 340.23 569 340.434C569 340.637 568.925 340.831 568.792 340.975C568.659 341.118 568.479 341.199 568.291 341.199Z" fill="#3F3D56"/>
<path d="M293.909 145.869H195.485C194.07 145.868 192.714 145.26 191.713 144.181C190.713 143.101 190.15 141.638 190.148 140.111V5.758C190.15 4.23141 190.713 2.76785 191.713 1.68839C192.714 0.608934 194.07 0.00173644 195.485 0H293.909C295.324 0.00173849 296.68 0.608938 297.681 1.6884C298.681 2.76787 299.244 4.23144 299.246 5.75803V140.111C299.244 141.638 298.681 143.102 297.681 144.181C296.68 145.26 295.324 145.868 293.909 145.869ZM195.485 1.27959C194.384 1.28092 193.329 1.75318 192.551 2.59276C191.773 3.43234 191.335 4.57068 191.334 5.75803V140.111C191.336 141.299 191.773 142.437 192.551 143.277C193.329 144.116 194.384 144.589 195.485 144.59H293.909C295.01 144.589 296.065 144.116 296.843 143.277C297.621 142.437 298.059 141.299 298.06 140.111V5.75803C298.059 4.57068 297.621 3.43235 296.843 2.59277C296.065 1.75319 295.01 1.28093 293.909 1.27959H195.485Z" fill="#3F3D56"/>
<path d="M236.51 64.5802H214.844C214.137 64.5794 213.459 64.2758 212.959 63.736C212.458 63.1963 212.177 62.4645 212.176 61.7012V34.1143C212.177 33.351 212.458 32.6191 212.959 32.0794C213.459 31.5397 214.137 31.2361 214.844 31.2352H236.51C237.217 31.2361 237.895 31.5397 238.396 32.0794C238.896 32.6191 239.177 33.351 239.178 34.1143V61.7012C239.177 62.4645 238.896 63.1963 238.396 63.736C237.895 64.2758 237.217 64.5794 236.51 64.5802Z" fill="#FF8537"/>
<path d="M278.607 77.3759H256.942C256.234 77.375 255.556 77.0714 255.056 76.5317C254.556 75.992 254.274 75.2602 254.273 74.4969V46.9099C254.274 46.1466 254.556 45.4148 255.056 44.8751C255.556 44.3353 256.234 44.0317 256.942 44.0309H278.607C279.314 44.0317 279.992 44.3353 280.493 44.8751C280.993 45.4148 281.274 46.1466 281.275 46.9099V74.4969C281.274 75.2602 280.993 75.992 280.493 76.5317C279.992 77.0714 279.314 77.375 278.607 77.3759Z" fill="#CCCCCC"/>
<path d="M244.81 116.402H223.145C222.438 116.401 221.76 116.098 221.259 115.558C220.759 115.018 220.478 114.287 220.477 113.523V85.9363C220.478 85.173 220.759 84.4411 221.259 83.9014C221.76 83.3617 222.438 83.0581 223.145 83.0573H244.81C245.518 83.0581 246.196 83.3617 246.696 83.9014C247.196 84.4411 247.478 85.173 247.479 85.9363V113.523C247.478 114.287 247.196 115.018 246.696 115.558C246.196 116.098 245.518 116.401 244.81 116.402Z" fill="#FF6584"/>
<path d="M82.2502 13.9997C84.7842 13.9997 86.8383 11.7832 86.8383 9.04897C86.8383 6.31477 84.7842 4.09827 82.2502 4.09827C79.7163 4.09827 77.6621 6.31477 77.6621 9.04897C77.6621 11.7832 79.7163 13.9997 82.2502 13.9997Z" fill="#C0C0C0"/>
<path d="M82.2502 33.7304C84.7842 33.7304 86.8383 31.5139 86.8383 28.7797C86.8383 26.0455 84.7842 23.829 82.2502 23.829C79.7163 23.829 77.6621 26.0455 77.6621 28.7797C77.6621 31.5139 79.7163 33.7304 82.2502 33.7304Z" fill="#C0C0C0"/>
<path d="M82.2502 53.461C84.7842 53.461 86.8383 51.2445 86.8383 48.5103C86.8383 45.7761 84.7842 43.5596 82.2502 43.5596C79.7163 43.5596 77.6621 45.7761 77.6621 48.5103C77.6621 51.2445 79.7163 53.461 82.2502 53.461Z" fill="#C0C0C0"/>
<path d="M82.2502 73.1916C84.7842 73.1916 86.8383 70.9751 86.8383 68.2409C86.8383 65.5067 84.7842 63.2902 82.2502 63.2902C79.7163 63.2902 77.6621 65.5067 77.6621 68.2409C77.6621 70.9751 79.7163 73.1916 82.2502 73.1916Z" fill="#C0C0C0"/>
<path d="M101.406 13.9997C103.94 13.9997 105.994 11.7832 105.994 9.04897C105.994 6.31477 103.94 4.09827 101.406 4.09827C98.872 4.09827 96.8179 6.31477 96.8179 9.04897C96.8179 11.7832 98.872 13.9997 101.406 13.9997Z" fill="#C0C0C0"/>
<path d="M101.406 33.7304C103.94 33.7304 105.994 31.5139 105.994 28.7797C105.994 26.0455 103.94 23.829 101.406 23.829C98.872 23.829 96.8179 26.0455 96.8179 28.7797C96.8179 31.5139 98.872 33.7304 101.406 33.7304Z" fill="#C0C0C0"/>
<path d="M101.406 53.461C103.94 53.461 105.994 51.2445 105.994 48.5103C105.994 45.7761 103.94 43.5596 101.406 43.5596C98.872 43.5596 96.8179 45.7761 96.8179 48.5103C96.8179 51.2445 98.872 53.461 101.406 53.461Z" fill="#C0C0C0"/>
<path d="M101.406 73.1916C103.94 73.1916 105.994 70.9751 105.994 68.2409C105.994 65.5067 103.94 63.2902 101.406 63.2902C98.872 63.2902 96.8179 65.5067 96.8179 68.2409C96.8179 70.9751 98.872 73.1916 101.406 73.1916Z" fill="#C0C0C0"/>
<path d="M120.562 13.9997C123.096 13.9997 125.15 11.7832 125.15 9.04897C125.15 6.31477 123.096 4.09827 120.562 4.09827C118.028 4.09827 115.974 6.31477 115.974 9.04897C115.974 11.7832 118.028 13.9997 120.562 13.9997Z" fill="#C0C0C0"/>
<path d="M120.562 33.7304C123.096 33.7304 125.15 31.5139 125.15 28.7797C125.15 26.0455 123.096 23.829 120.562 23.829C118.028 23.829 115.974 26.0455 115.974 28.7797C115.974 31.5139 118.028 33.7304 120.562 33.7304Z" fill="#C0C0C0"/>
<path d="M120.562 53.461C123.096 53.461 125.15 51.2445 125.15 48.5103C125.15 45.7761 123.096 43.5596 120.562 43.5596C118.028 43.5596 115.974 45.7761 115.974 48.5103C115.974 51.2445 118.028 53.461 120.562 53.461Z" fill="#C0C0C0"/>
<path d="M120.562 73.1916C123.096 73.1916 125.15 70.9751 125.15 68.2409C125.15 65.5067 123.096 63.2902 120.562 63.2902C118.028 63.2902 115.974 65.5067 115.974 68.2409C115.974 70.9751 118.028 73.1916 120.562 73.1916Z" fill="#C0C0C0"/>
<path d="M139.717 13.9997C142.251 13.9997 144.306 11.7832 144.306 9.04897C144.306 6.31477 142.251 4.09827 139.717 4.09827C137.184 4.09827 135.129 6.31477 135.129 9.04897C135.129 11.7832 137.184 13.9997 139.717 13.9997Z" fill="#C0C0C0"/>
<path d="M139.717 33.7304C142.251 33.7304 144.306 31.5139 144.306 28.7797C144.306 26.0455 142.251 23.829 139.717 23.829C137.184 23.829 135.129 26.0455 135.129 28.7797C135.129 31.5139 137.184 33.7304 139.717 33.7304Z" fill="#C0C0C0"/>
<path d="M139.717 53.461C142.251 53.461 144.306 51.2445 144.306 48.5103C144.306 45.7761 142.251 43.5596 139.717 43.5596C137.184 43.5596 135.129 45.7761 135.129 48.5103C135.129 51.2445 137.184 53.461 139.717 53.461Z" fill="#C0C0C0"/>
<path d="M139.717 73.1916C142.251 73.1916 144.306 70.9751 144.306 68.2409C144.306 65.5067 142.251 63.2902 139.717 63.2902C137.184 63.2902 135.129 65.5067 135.129 68.2409C135.129 70.9751 137.184 73.1916 139.717 73.1916Z" fill="#C0C0C0"/>
<path d="M158.874 13.9997C161.408 13.9997 163.462 11.7832 163.462 9.04897C163.462 6.31477 161.408 4.09827 158.874 4.09827C156.34 4.09827 154.286 6.31477 154.286 9.04897C154.286 11.7832 156.34 13.9997 158.874 13.9997Z" fill="#C0C0C0"/>
<path d="M158.874 33.7304C161.408 33.7304 163.462 31.5139 163.462 28.7797C163.462 26.0455 161.408 23.829 158.874 23.829C156.34 23.829 154.286 26.0455 154.286 28.7797C154.286 31.5139 156.34 33.7304 158.874 33.7304Z" fill="#C0C0C0"/>
<path d="M158.874 53.461C161.408 53.461 163.462 51.2445 163.462 48.5103C163.462 45.7761 161.408 43.5596 158.874 43.5596C156.34 43.5596 154.286 45.7761 154.286 48.5103C154.286 51.2445 156.34 53.461 158.874 53.461Z" fill="#C0C0C0"/>
<path d="M158.874 73.1916C161.408 73.1916 163.462 70.9751 163.462 68.2409C163.462 65.5067 161.408 63.2902 158.874 63.2902C156.34 63.2902 154.286 65.5067 154.286 68.2409C154.286 70.9751 156.34 73.1916 158.874 73.1916Z" fill="#C0C0C0"/>
<path d="M178.03 13.9997C180.563 13.9997 182.618 11.7832 182.618 9.04897C182.618 6.31477 180.563 4.09827 178.03 4.09827C175.496 4.09827 173.441 6.31477 173.441 9.04897C173.441 11.7832 175.496 13.9997 178.03 13.9997Z" fill="#C0C0C0"/>
<path d="M178.03 33.7304C180.563 33.7304 182.618 31.5139 182.618 28.7797C182.618 26.0455 180.563 23.829 178.03 23.829C175.496 23.829 173.441 26.0455 173.441 28.7797C173.441 31.5139 175.496 33.7304 178.03 33.7304Z" fill="#C0C0C0"/>
<path d="M178.03 53.461C180.563 53.461 182.618 51.2445 182.618 48.5103C182.618 45.7761 180.563 43.5596 178.03 43.5596C175.496 43.5596 173.441 45.7761 173.441 48.5103C173.441 51.2445 175.496 53.461 178.03 53.461Z" fill="#C0C0C0"/>
<path d="M178.03 73.1916C180.563 73.1916 182.618 70.9751 182.618 68.2409C182.618 65.5067 180.563 63.2902 178.03 63.2902C175.496 63.2902 173.441 65.5067 173.441 68.2409C173.441 70.9751 175.496 73.1916 178.03 73.1916Z" fill="#C0C0C0"/>
<path d="M128.447 347.89C144.909 347.89 158.254 333.49 158.254 315.728C158.254 297.965 144.909 283.565 128.447 283.565C111.985 283.565 98.6401 297.965 98.6401 315.728C98.6401 333.49 111.985 347.89 128.447 347.89Z" fill="#2F2E41"/>
<path d="M117.113 336.858L102.606 344.697L106.661 353.434L121.167 345.595L117.113 336.858Z" fill="#2F2E41"/>
<path d="M108.573 352.547C109.433 351.139 107.31 347.991 103.831 345.516C100.351 343.041 96.8335 342.175 95.9732 343.583C95.1129 344.991 97.2361 348.139 100.715 350.614C104.195 353.09 107.713 353.955 108.573 352.547Z" fill="#2F2E41"/>
<path d="M139.781 336.858L135.727 345.595L150.233 353.434L154.288 344.697L139.781 336.858Z" fill="#2F2E41"/>
<path d="M156.178 350.614C159.658 348.139 161.781 344.991 160.921 343.583C160.06 342.175 156.542 343.04 153.063 345.516C149.584 347.991 147.461 351.139 148.321 352.547C149.181 353.955 152.699 353.09 156.178 350.614Z" fill="#2F2E41"/>
<path d="M126.36 318.853C131.987 318.853 136.548 313.931 136.548 307.86C136.548 301.79 131.987 296.868 126.36 296.868C120.734 296.868 116.173 301.79 116.173 307.86C116.173 313.931 120.734 318.853 126.36 318.853Z" fill="white"/>
<path d="M120.396 308.126C124.03 305.139 128.139 309.572 125.37 313.494C121.736 316.481 117.627 312.048 120.396 308.126Z" fill="#3F3D56"/>
<path d="M151.96 280.738C152.408 268.831 142.898 258.746 130.718 258.212C118.538 257.678 108.301 266.898 107.852 278.805C107.404 290.712 115.871 293.417 128.051 293.951C140.231 294.485 151.512 292.645 151.96 280.738Z" fill="#CCCCCC"/>
<path d="M169.142 332.569C171.102 330.753 168.345 323.818 162.984 317.079C157.622 310.34 151.687 306.349 149.726 308.165C147.766 309.981 150.523 316.917 155.884 323.655C161.245 330.394 167.181 334.385 169.142 332.569Z" fill="#2F2E41"/>
<path d="M101.093 323.655C106.455 316.917 109.211 309.981 107.251 308.165C105.29 306.349 99.3547 310.34 93.9933 317.079C88.6319 323.817 85.875 330.753 87.8356 332.569C89.7962 334.385 95.7318 330.394 101.093 323.655Z" fill="#2F2E41"/>
<path d="M136.633 328.402C136.794 329.349 136.78 330.322 136.592 331.263C136.405 332.204 136.047 333.096 135.539 333.888C135.032 334.68 134.385 335.357 133.635 335.879C132.885 336.401 132.047 336.758 131.169 336.931C130.291 337.103 129.391 337.087 128.518 336.884C127.646 336.68 126.82 336.294 126.086 335.745C125.352 335.197 124.726 334.498 124.243 333.689C123.76 332.879 123.429 331.975 123.27 331.027L123.268 331.013C122.6 327.031 125.453 325.621 129.144 324.9C132.835 324.179 135.965 324.42 136.633 328.402Z" fill="white"/>
<path d="M443.633 250.581H403.895C403.895 251.089 403.708 251.575 403.376 251.934C403.043 252.293 402.592 252.495 402.122 252.495H363.115C362.564 252.943 362.062 253.456 361.618 254.026C360.284 255.742 359.556 257.911 359.56 260.151V261.682C359.561 264.219 360.496 266.653 362.159 268.447C363.821 270.241 366.077 271.25 368.429 271.251H443.633C445.985 271.249 448.239 270.24 449.902 268.446C451.564 266.652 452.5 264.219 452.502 261.682V260.151C452.498 257.614 451.563 255.182 449.9 253.388C448.238 251.594 445.984 250.585 443.633 250.581Z" fill="#3F3D56"/>
<path d="M410.994 270.871H401.771V341.301H410.994V270.871Z" fill="#3F3D56"/>
<path d="M437.244 340.951C437.244 342.027 423.268 341.367 406.028 341.367C388.787 341.367 374.811 342.027 374.811 340.951C374.811 339.876 388.787 331.349 406.028 331.349C423.268 331.349 437.244 339.876 437.244 340.951Z" fill="#3F3D56"/>
<path d="M441.895 252.786L440.348 242.344C440.152 241.028 439.48 239.85 438.48 239.067C437.48 238.285 436.233 237.963 435.013 238.172L419.057 240.92L391.728 245.628L382.838 247.159H402.122C402.592 247.159 403.043 247.361 403.376 247.72C403.708 248.079 403.895 248.565 403.895 249.073V250.581C403.895 251.089 403.708 251.575 403.376 251.934C403.043 252.293 402.592 252.495 402.122 252.495H353.047C352.362 252.841 351.769 253.367 351.323 254.026C350.946 254.562 350.673 255.174 350.522 255.827C350.371 256.48 350.344 257.159 350.444 257.823L350.883 260.794L351.415 264.399L351.99 268.273C352.186 269.586 352.855 270.761 353.853 271.542C354.85 272.323 356.094 272.645 357.311 272.438L369.99 270.256L406.556 263.955L438.028 258.535C439.245 258.321 440.335 257.597 441.059 256.52C441.783 255.443 442.084 254.101 441.895 252.786Z" fill="#FF8537"/>
<path d="M369.017 254.026C368.551 253.358 367.933 252.831 367.223 252.495H353.657C352.944 252.828 352.323 253.356 351.855 254.026C351.224 254.898 350.882 255.974 350.883 257.081V315.423C350.885 316.752 351.375 318.027 352.246 318.967C353.118 319.907 354.299 320.435 355.531 320.437H365.343C366.575 320.435 367.756 319.906 368.627 318.966C369.498 318.027 369.988 316.752 369.99 315.423V257.081C369.99 255.974 369.648 254.899 369.017 254.026Z" fill="#FF8537"/>
<path d="M398.546 154.658L398.454 154.528L392.367 146.436C392.043 146.002 391.651 145.632 391.21 145.342C390.977 145.171 390.724 145.032 390.458 144.928C390.07 144.76 389.661 144.652 389.245 144.607C388.967 144.575 388.687 144.57 388.408 144.591C388.402 144.592 388.397 144.595 388.394 144.599C387.453 144.674 386.556 145.058 385.825 145.701L373.331 156.633L357.276 170.689L333.317 191.665L331.572 193.196H361.888L363.64 191.665L369.437 186.589L369.848 186.237L397.844 161.732L397.865 161.717C398.441 161.216 398.897 160.573 399.192 159.841C399.387 159.362 399.511 158.853 399.561 158.333C399.625 157.678 399.569 157.017 399.395 156.386C399.221 155.755 398.932 155.168 398.546 154.658Z" fill="#FF8537"/>
<path d="M398.454 154.528C398.063 152.465 397.194 150.543 395.928 148.94C394.667 147.324 393.043 146.085 391.21 145.342C390.926 145.227 390.65 145.12 390.366 145.035C389.726 144.83 389.071 144.681 388.408 144.591C388.402 144.592 388.397 144.595 388.394 144.599C385.409 144.227 382.406 145.122 380.022 147.095L358.411 164.917C357.952 165.359 357.581 165.897 357.319 166.498C357.057 167.099 356.909 167.751 356.886 168.415C356.852 169.195 356.986 169.973 357.276 170.689C357.347 170.85 357.425 171.01 357.51 171.163C357.676 171.474 357.876 171.762 358.106 172.021L361.568 176.216L369.621 185.961L369.848 186.237L370.366 186.872C370.778 187.36 371.275 187.755 371.829 188.035C372.383 188.315 372.983 188.474 373.594 188.503C374.205 188.532 374.815 188.431 375.39 188.205C375.964 187.979 376.492 187.633 376.943 187.186L395.58 165.583C396.549 164.461 397.316 163.155 397.844 161.732C398.695 159.447 398.907 156.942 398.454 154.528Z" fill="#2F2E41"/>
<path d="M406.694 126.807C426.333 126.807 442.254 109.628 442.254 88.4362C442.254 67.2446 426.333 50.0654 406.694 50.0654C387.054 50.0654 371.133 67.2446 371.133 88.4362C371.133 109.628 387.054 126.807 406.694 126.807Z" fill="#FF8537"/>
<path d="M420.029 247.504L419.057 240.92L418.483 237.054C418.287 235.74 417.616 234.563 416.617 233.783C415.618 233.002 414.373 232.681 413.154 232.889L387.308 237.337L380.299 238.547L378.88 238.792V247.159H402.122C402.592 247.159 403.044 247.361 403.376 247.72C403.709 248.079 403.896 248.566 403.896 249.073V250.581C403.896 251.089 403.709 251.575 403.376 251.934C403.044 252.293 402.592 252.495 402.122 252.495H328.571C328.571 252.51 328.578 252.526 328.578 252.541L329.018 255.511L330.125 262.983C330.32 264.296 330.99 265.471 331.987 266.252C332.985 267.033 334.228 267.355 335.446 267.148L348.124 264.966L350.884 264.491L351.416 264.399L369.99 261.199L382.626 259.018L402.675 255.565L402.974 255.511L416.163 253.245C417.38 253.035 418.47 252.312 419.195 251.236C419.92 250.16 420.22 248.818 420.029 247.504Z" fill="#FF8537"/>
<path d="M455.092 219.347C455.092 250.627 452.147 269.337 406.741 263.978C406.677 263.971 406.62 263.963 406.556 263.955C398.458 263.092 390.448 261.439 382.626 259.018C378.561 257.737 374.61 256.066 370.82 254.026C369.926 253.536 369.068 253.023 368.223 252.495H402.122C402.592 252.495 403.044 252.293 403.376 251.934C403.709 251.576 403.896 251.089 403.896 250.581V249.073C403.896 248.566 403.709 248.079 403.376 247.72C403.044 247.361 402.592 247.159 402.122 247.159H378.88V198.807C378.878 197.32 378.329 195.894 377.354 194.842C376.38 193.79 375.058 193.198 373.679 193.196H374.637C374.8 192.691 374.963 192.178 375.141 191.665C376.865 186.497 376.695 182.433 379.143 177.372C382.506 170.39 382.527 163.37 386.947 157.468C390.239 153.081 380.157 148.297 383.86 145.005C390.976 138.666 398.724 134.746 406.585 134.746C435.574 134.746 455.092 188.067 455.092 219.347Z" fill="#2F2E41"/>
<path d="M407.441 102.658L407.478 101.224C405.005 101.15 402.826 100.982 401.188 99.6912C400.724 99.3043 400.342 98.8141 400.069 98.2539C399.796 97.6937 399.638 97.0766 399.606 96.4446C399.577 96.0584 399.631 95.6703 399.764 95.3103C399.897 94.9504 400.105 94.6284 400.372 94.3693C401.459 93.3786 403.208 93.6993 404.483 94.3301L405.583 94.8741L403.474 78.2477L402.158 78.4423L403.951 92.5853C403.217 92.2914 402.426 92.2005 401.651 92.3208C400.876 92.4412 400.142 92.769 399.514 93.2743C399.092 93.672 398.761 94.1696 398.546 94.7283C398.332 95.287 398.24 95.8916 398.278 96.4949C398.317 97.3441 398.527 98.1739 398.894 98.926C399.262 99.6782 399.777 100.335 400.404 100.849C402.509 102.508 405.243 102.591 407.441 102.658Z" fill="#2F2E41"/>
<path d="M395.647 79.6621H388.49V81.096H395.647V79.6621Z" fill="#2F2E41"/>
<path d="M418.238 79.6621H411.081V81.096H418.238V79.6621Z" fill="#2F2E41"/>
<path d="M427.834 165.628L425.017 163.516L419.774 159.588C418.76 158.832 417.51 158.54 416.297 158.777C415.084 159.014 414.007 159.76 413.303 160.851L396.212 187.393L380.299 212.105L378.88 214.31V247.159H379.007C380.114 247.041 381.143 246.497 381.909 245.628C382.073 245.446 382.223 245.248 382.356 245.039L387.308 237.337L399.547 218.329L412.232 198.639L413.438 196.763L428.99 172.61C429.075 172.482 429.153 172.349 429.224 172.212C429.295 172.081 429.359 171.945 429.416 171.806C429.862 170.739 429.948 169.537 429.659 168.409C429.37 167.281 428.724 166.297 427.834 165.628Z" fill="#FF8537"/>
<path d="M427.883 155.125C427.381 154.77 426.855 154.457 426.308 154.191C423.884 152.993 421.152 152.731 418.57 153.45C415.988 154.17 413.715 155.826 412.132 158.141L395.985 181.766C395.66 182.329 395.443 182.955 395.345 183.609C395.247 184.263 395.271 184.932 395.415 185.576C395.559 186.22 395.82 186.827 396.184 187.361C396.547 187.895 397.005 188.346 397.531 188.687L412.232 198.639L412.416 198.761L413.154 199.259C414.209 199.947 415.474 200.156 416.672 199.841C417.87 199.525 418.904 198.71 419.547 197.575L430.948 173.154L431.139 172.748L431.146 172.74L431.849 171.217C433.13 168.476 433.433 165.324 432.702 162.357C431.971 159.391 430.256 156.817 427.883 155.125Z" fill="#2F2E41"/>
<path d="M329.018 252.495V310.133C329.019 311.462 329.51 312.737 330.381 313.677C331.252 314.617 332.433 315.145 333.665 315.147H343.477C344.709 315.145 345.89 314.617 346.761 313.677C347.632 312.737 348.122 311.462 348.124 310.133V252.495H329.018Z" fill="#FF8537"/>
<path d="M402.122 245.628H380.299V198.807C380.297 196.914 379.599 195.098 378.358 193.759C377.117 192.42 375.434 191.667 373.679 191.665H292.749C290.993 191.665 289.309 192.418 288.066 193.757C286.824 195.096 286.125 196.912 286.123 198.807V246.884C286.125 248.778 286.824 250.595 288.066 251.934C289.309 253.273 290.993 254.026 292.749 254.026H402.122C402.236 254.026 402.342 254.018 402.448 254.011C402.548 254.003 402.647 253.98 402.746 253.965C403.47 253.807 404.121 253.384 404.589 252.767C405.057 252.15 405.314 251.378 405.315 250.581V249.073C405.315 248.159 404.978 247.283 404.379 246.637C403.781 245.991 402.969 245.628 402.122 245.628ZM402.122 252.495H292.749C291.369 252.494 290.046 251.903 289.07 250.851C288.093 249.799 287.544 248.372 287.542 246.884V198.807C287.544 197.319 288.093 195.892 289.07 194.84C290.046 193.788 291.369 193.196 292.749 193.196H373.679C375.058 193.198 376.379 193.79 377.354 194.842C378.329 195.894 378.878 197.32 378.88 198.807V247.159H402.122C402.592 247.159 403.043 247.361 403.376 247.72C403.709 248.079 403.895 248.566 403.896 249.073V250.581C403.895 251.089 403.709 251.575 403.376 251.934C403.043 252.293 402.592 252.495 402.122 252.495Z" fill="#3F3D56"/>
<path d="M333.211 228.733C336.225 228.733 338.667 226.098 338.667 222.846C338.667 219.595 336.225 216.959 333.211 216.959C330.198 216.959 327.755 219.595 327.755 222.846C327.755 226.098 330.198 228.733 333.211 228.733Z" fill="#FF8537"/>
<path d="M380.277 246.439H378.858V253.329H380.277V246.439Z" fill="#3F3D56"/>
<path d="M160.734 199.318C163.747 190.813 164.183 183.092 161.709 182.072C159.235 181.051 154.787 187.118 151.774 195.622C148.762 204.127 148.326 211.848 150.8 212.869C153.274 213.889 157.722 207.822 160.734 199.318Z" fill="#2F2E41"/>
<path d="M158.173 227.649C160.876 209.675 149.564 192.74 132.907 189.823C116.249 186.906 100.555 199.112 97.8514 217.086C95.1483 235.06 106.46 251.995 123.118 254.912C139.775 257.828 155.47 245.622 158.173 227.649Z" fill="#2F2E41"/>
<path d="M123.371 248.243H114.088V266.188H123.371V248.243Z" fill="#2F2E41"/>
<path d="M141.936 248.243H132.653V266.188H141.936V248.243Z" fill="#2F2E41"/>
<path d="M121.824 269.527C126.096 269.527 129.559 268.126 129.559 266.397C129.559 264.668 126.096 263.267 121.824 263.267C117.552 263.267 114.088 264.668 114.088 266.397C114.088 268.126 117.552 269.527 121.824 269.527Z" fill="#2F2E41"/>
<path d="M140.389 269.11C144.661 269.11 148.124 267.708 148.124 265.98C148.124 264.251 144.661 262.849 140.389 262.849C136.117 262.849 132.653 264.251 132.653 265.98C132.653 267.708 136.117 269.11 140.389 269.11Z" fill="#2F2E41"/>
<path d="M129.092 225.284C134.857 225.101 139.394 219.91 139.224 213.689C139.055 207.469 134.244 202.574 128.479 202.757C122.714 202.94 118.178 208.131 118.347 214.351C118.517 220.572 123.327 225.467 129.092 225.284Z" fill="white"/>
<path d="M128.786 217.776C130.708 217.776 132.267 216.095 132.267 214.02C132.267 211.946 130.708 210.264 128.786 210.264C126.863 210.264 125.305 211.946 125.305 214.02C125.305 216.095 126.863 217.776 128.786 217.776Z" fill="#3F3D56"/>
<path d="M98.3726 191.706C95.9054 179.784 103.792 167.737 115.988 164.798C128.184 161.86 140.071 169.143 142.538 181.065C145.005 192.988 136.922 197.385 124.726 200.323C112.531 203.262 100.84 203.629 98.3726 191.706Z" fill="#FF8537"/>
<path d="M107.401 214.133C108.536 211.551 103.276 206.295 95.6521 202.393C88.0285 198.492 80.9282 197.422 79.7931 200.005C78.658 202.587 83.918 207.843 91.5416 211.745C99.1652 215.646 106.265 216.716 107.401 214.133Z" fill="#2F2E41"/>
<path d="M113.003 234.262C113.003 237.488 120.704 243.86 129.248 243.86C137.792 243.86 145.804 234.776 145.804 231.549C145.804 228.322 137.792 232.175 129.248 232.175C120.704 232.175 113.003 231.035 113.003 234.262Z" fill="white"/>
<path d="M186.978 215.301L164.487 220.038C164.122 220.116 163.746 220.103 163.387 220.001C163.028 219.898 162.696 219.709 162.415 219.447C162.128 219.181 161.901 218.849 161.752 218.475C161.602 218.101 161.534 217.695 161.552 217.288C161.935 207.336 160.143 197.426 156.319 188.361C156.16 187.991 156.082 187.587 156.09 187.18C156.099 186.772 156.193 186.372 156.366 186.01C156.535 185.653 156.777 185.343 157.074 185.102C157.371 184.861 157.715 184.697 158.08 184.622L180.571 179.884C181.146 179.765 181.742 179.869 182.252 180.178C182.762 180.488 183.154 180.983 183.358 181.576C186.685 191.548 188.578 202.012 188.971 212.602C188.989 213.234 188.798 213.852 188.433 214.346C188.068 214.84 187.552 215.178 186.978 215.301Z" fill="#FF6584"/>
<path d="M88.3608 237.502L65.8693 242.239C65.5051 242.317 65.1291 242.304 64.7701 242.202C64.4111 242.099 64.0785 241.91 63.7976 241.648C63.511 241.382 63.2842 241.05 63.1347 240.676C62.9851 240.302 62.9166 239.896 62.9344 239.489C63.3181 229.537 61.5254 219.627 57.7013 210.562C57.543 210.192 57.465 209.788 57.4732 209.381C57.4815 208.973 57.5757 208.573 57.7488 208.211C57.9178 207.854 58.1599 207.544 58.4569 207.303C58.7538 207.063 59.0977 206.898 59.4624 206.823L81.9539 202.085C82.5288 201.966 83.1245 202.07 83.6349 202.38C84.1452 202.689 84.5372 203.184 84.741 203.777C88.068 213.749 89.9608 224.213 90.3538 234.803C90.3715 235.435 90.1808 236.053 89.8158 236.547C89.4509 237.041 88.9352 237.379 88.3608 237.502Z" fill="#CCCCCC"/>
<path d="M416.925 61.4981C410.523 64.582 403.259 64.8544 396.674 62.2577C391.845 60.26 387.66 56.7868 384.632 52.2631C381.604 47.7394 379.863 42.3613 379.624 36.787L378.022 37.7785L384.773 42.9042C384.915 42.9917 385.072 43.0433 385.235 43.0551C385.397 43.067 385.56 43.0388 385.71 42.9726C385.861 42.9064 385.996 42.8041 386.104 42.6734C386.213 42.5426 386.292 42.3869 386.337 42.218C386.811 40.1679 387.672 38.2455 388.866 36.5706C390.06 34.8957 391.561 33.5045 393.275 32.4837C397.035 30.2213 401.405 29.4368 405.641 30.2641C414.413 31.7996 422.31 38.1098 427.448 45.7614C430.252 49.9242 432.33 54.6038 433.579 59.5708C433.662 59.8551 433.843 60.0937 434.086 60.2363C434.328 60.3789 434.612 60.4143 434.879 60.3351C435.145 60.256 435.372 60.0684 435.512 59.8119C435.653 59.5554 435.696 59.25 435.631 58.9603C433.184 49.3043 427.806 40.8128 420.358 34.8438C412.735 28.7357 402.062 25.0438 393.095 29.9746C388.827 32.3213 385.353 36.4992 384.284 41.6074L385.848 40.9212L379.096 35.7954C378.934 35.6957 378.751 35.6433 378.564 35.6436C378.378 35.6438 378.195 35.6967 378.033 35.7969C377.871 35.8971 377.736 36.0411 377.642 36.2148C377.548 36.3884 377.497 36.5857 377.495 36.787C377.829 44.523 380.798 51.8537 385.831 57.3741C391.093 63.0481 398.212 66.2611 405.65 66.3192C409.91 66.3697 414.128 65.4005 418 63.4812C419.243 62.8665 418.163 60.8864 416.925 61.4981Z" fill="#2F2E41"/>
<path d="M118.251 349.213L95.7599 353.95C95.3957 354.028 95.0197 354.015 94.6607 353.913C94.3017 353.81 93.9691 353.621 93.6882 353.359C93.4016 353.093 93.1749 352.761 93.0253 352.387C92.8757 352.013 92.8072 351.607 92.825 351.2C93.2087 341.248 91.416 331.339 87.5919 322.273C87.4336 321.903 87.3556 321.499 87.3639 321.092C87.3721 320.684 87.4664 320.284 87.6395 319.922C87.8084 319.565 88.0505 319.255 88.3475 319.014C88.6444 318.774 88.9884 318.609 89.3531 318.534L111.845 313.796C112.419 313.677 113.015 313.781 113.526 314.091C114.036 314.4 114.428 314.895 114.632 315.488C117.959 325.46 119.851 335.924 120.244 346.515C120.262 347.146 120.071 347.764 119.706 348.258C119.342 348.752 118.826 349.09 118.251 349.213Z" fill="#FF8537"/>
</g>
<defs>
<clipPath id="clip0_724_887">
<rect width="569" height="354" fill="white"/>
</clipPath>
</defs>
</svg>
